<?xml version="1.0" encoding="utf-8"?>
<svg version="1.1" id="Layer_1" xmlns="http://www.w3.org/2000/svg" xmlns:xlink="http://www.w3.org/1999/xlink" x="0px" y="0px"
	 width="30" height="30" viewBox="0 0 250 250" style="enable-background:new 0 0 250 250;" xml:space="preserve">
<g>
	<g>
		<g>
			<path d="M54.2,166.9c0-35.1,0-70.1,0-105.2c0-5,0-10,0-15c-2.5,2.5-5,5-7.5,7.5c35.1,0,70.1,0,105.2,0c5,0,10,0,15,0
				c9.7,0,9.7-15,0-15c-35.1,0-70.1,0-105.2,0c-5,0-10,0-15,0c-4.1,0-7.5,3.4-7.5,7.5c0,35.1,0,70.1,0,105.2c0,5,0,10,0,15
				C39.2,176.6,54.2,176.6,54.2,166.9L54.2,166.9z"/>
		</g>
	</g>
	<g>
		<g>
			<path d="M203.2,195.8c-35.1,0-70.1,0-105.2,0c-5,0-10,0-15,0c2.5,2.5,5,5,7.5,7.5c0-35.1,0-70.1,0-105.2c0-5,0-10,0-15
				c-2.5,2.5-5,5-7.5,7.5c35.1,0,70.1,0,105.2,0c5,0,10,0,15,0c-2.5-2.5-5-5-7.5-7.5c0,35.1,0,70.1,0,105.2c0,5,0,10,0,15
				c0,9.7,15,9.7,15,0c0-35.1,0-70.1,0-105.2c0-5,0-10,0-15c0-4.1-3.4-7.5-7.5-7.5c-35.1,0-70.1,0-105.2,0c-5,0-10,0-15,0
				c-4.1,0-7.5,3.4-7.5,7.5c0,35.1,0,70.1,0,105.2c0,5,0,10,0,15c0,4.1,3.4,7.5,7.5,7.5c35.1,0,70.1,0,105.2,0c5,0,10,0,15,0
				C212.9,210.8,212.9,195.8,203.2,195.8z"/>
		</g>
	</g>
</g>
</svg>
