<?xml version="1.0" encoding="utf-8"?>
<!-- Generator: Adobe Illustrator 25.4.1, SVG Export Plug-In . SVG Version: 6.00 Build 0)  -->
<svg version="1.1" id="Layer_1" xmlns="http://www.w3.org/2000/svg" xmlns:xlink="http://www.w3.org/1999/xlink" x="0px" y="0px"
	 width="400px" height="400px" viewBox="0 0 400 400" style="enable-background:new 0 0 400 400;" xml:space="preserve">
<style type="text/css">
	.st0{fill:#C1272D;stroke:#C1272D;stroke-width:6;stroke-miterlimit:10;}
	.st1{fill:#FFFFFF;}
</style>
<g>
	<path class="st0" d="M145.3,138.7l51-38.3l59.1,35.5c0.3,4.7,0.5,8.7,0.5,11.9c0,13.4-3.7,24.8-11,34.3s-23.8,21.4-49.4,35.9
		c-11.5,6.5-19.6,11.8-24.3,15.7c-4.7,4-8.9,8.8-12.7,14.5c10-4.4,18.6-7.5,26-9.3s14.7-2.6,21.9-2.6c6.1,0,12.4,0.5,18.8,1.4
		c6.4,0.9,11.3,1.8,14.6,2.8l19,6.3l-21.3,23.3c-12.8-4.5-21.5-7.2-26.1-8.1c-7.4-1.6-14.3-2.4-20.8-2.4c-12.4,0-26,2.9-40.6,8.6
		c-3.1,1.2-4.9,1.9-5.4,1.9s-0.9-0.2-1.1-0.5c-0.3-0.4-0.5-1-0.5-1.8c0-3.9,1.3-8.7,4-14.4c3.6-7.7,8.8-15.3,15.6-22.8
		c4.8-5.4,12.7-12.5,23.5-21.3c10.9-8.8,18.4-15.5,22.6-20.1c5.8-6.5,10.3-13.2,13.4-20.2c3.1-7,4.7-14.5,4.7-22.4
		c0-11.8-4.4-21.6-13.3-29.2l-50.9,38.9L145.3,138.7z"/>
</g>
<g>
	<path class="st1" d="M166.7,297.7c0,9.3-6.8,15.6-16.8,15.6h-13.1v-31.1h13.4C160,282.2,166.7,288.5,166.7,297.7z M158.4,297.8
		c0-5.4-3.5-9-8.4-9h-5.1v17.9h5.5C155.1,306.7,158.4,303.1,158.4,297.8z"/>
	<path class="st1" d="M192.1,297.7v15.6h-7.8v-2.7c-1.6,2-4,3.1-7.2,3.1c-5.1,0-8.2-3.1-8.2-7.5c0-4.6,3.2-7.2,9.2-7.3h6.2v-0.3
		c0-2.3-1.6-3.6-4.6-3.6c-2,0-4.6,0.7-7.2,1.9l-2.2-5.3c3.8-1.7,7.2-2.6,11.2-2.6C188.2,289,192,292.2,192.1,297.7z M184.3,305.2
		v-2.1h-4.7c-2.2,0-3.3,0.8-3.3,2.5c0,1.6,1.2,2.7,3.2,2.7C181.9,308.3,183.8,307,184.3,305.2z"/>
	<path class="st1" d="M205.5,282.5c0,2.5-1.7,4.2-4.2,4.2c-2.4,0-4.2-1.7-4.2-4.2s1.7-4.2,4.2-4.2
		C203.7,278.3,205.5,280,205.5,282.5z M205.2,289.3v24h-7.8v-24H205.2z"/>
	<path class="st1" d="M251.3,297.7c0,9.3-6.8,15.6-16.8,15.6h-13.1v-31.1h13.4C244.6,282.2,251.3,288.5,251.3,297.7z M243,297.8
		c0-5.4-3.5-9-8.4-9h-5.1v17.9h5.5C239.7,306.7,243,303.1,243,297.8z"/>
	<path class="st1" d="M263.5,282.5c0,2.5-1.7,4.2-4.2,4.2c-2.4,0-4.2-1.7-4.2-4.2s1.7-4.2,4.2-4.2
		C261.7,278.3,263.5,280,263.5,282.5z M263.2,289.3v24h-7.8v-24H263.2z"/>
</g>
</svg>
