<?xml version="1.0" encoding="utf-8"?>
<!-- Generator: Adobe Illustrator 25.4.1, SVG Export Plug-In . SVG Version: 6.00 Build 0)  -->
<svg version="1.1" id="Layer_1" xmlns="http://www.w3.org/2000/svg" xmlns:xlink="http://www.w3.org/1999/xlink" x="0px" y="0px"
	 width="287px" height="405px" viewBox="0 0 287 405" style="enable-background:new 0 0 287 405;" xml:space="preserve">
<style type="text/css">
	.st0{fill:#C1272D;stroke:#C1272D;stroke-width:6;stroke-miterlimit:10;}
	.st1{fill:#FFFFFF;}
</style>
<g>
	<g>
		<path class="st0" d="M47,80.3l93-69.8l107.8,64.7c0.5,8.6,0.9,15.9,0.9,21.7c0,24.4-6.7,45.2-20.1,62.6
			c-13.3,17.3-43.4,39-90.1,65.5c-21,11.9-35.7,21.5-44.3,28.6c-8.6,7.3-16.2,16-23.2,26.4c18.2-8,33.9-13.7,47.4-17
			s26.8-4.7,39.9-4.7c11.1,0,22.6,0.9,34.3,2.6c11.7,1.6,20.6,3.3,26.6,5.1l34.7,11.5L215.1,320c-23.3-8.2-39.2-13.1-47.6-14.8
			c-13.5-2.9-26.1-4.4-37.9-4.4c-22.6,0-47.4,5.3-74,15.7c-5.7,2.2-8.9,3.5-9.8,3.5s-1.6-0.4-2-0.9c-0.5-0.7-0.9-1.8-0.9-3.3
			c0-7.1,2.4-15.9,7.3-26.3c6.6-14,16-27.9,28.5-41.6c8.8-9.8,23.2-22.8,42.9-38.8c19.9-16,33.6-28.3,41.2-36.7
			c10.6-11.9,18.8-24.1,24.4-36.8c5.7-12.8,8.6-26.4,8.6-40.9c0-21.5-8-39.4-24.3-53.3l-92.8,70.9L47,80.3z"/>
	</g>
	<g>
		<path class="st1" d="M86,370.3c0,17-12.4,28.5-30.6,28.5H31.5v-56.7h24.4C73.8,342.1,86,353.5,86,370.3z M70.9,370.5
			c0-9.8-6.4-16.4-15.3-16.4h-9.3v32.6h10C64.8,386.7,70.9,380.2,70.9,370.5z"/>
		<path class="st1" d="M132.3,370.3v28.5h-14.2v-4.9c-2.9,3.6-7.3,5.7-13.1,5.7c-9.3,0-15-5.7-15-13.7c0-8.4,5.8-13.1,16.8-13.3
			h11.3V372c0-4.2-2.9-6.6-8.4-6.6c-3.6,0-8.4,1.3-13.1,3.5l-4-9.7c6.9-3.1,13.1-4.7,20.4-4.7C125.2,354.5,132.1,360.3,132.3,370.3z
			 M118.1,384v-3.8h-8.6c-4,0-6,1.5-6,4.6c0,2.9,2.2,4.9,5.8,4.9C113.7,389.7,117.2,387.3,118.1,384z"/>
		<path class="st1" d="M156.8,342.6c0,4.6-3.1,7.7-7.7,7.7c-4.4,0-7.7-3.1-7.7-7.7c0-4.6,3.1-7.7,7.7-7.7
			C153.5,334.9,156.8,338,156.8,342.6z M156.2,355v43.8H142V355H156.2z"/>
		<path class="st1" d="M240.3,370.3c0,17-12.4,28.5-30.6,28.5h-23.9v-56.7h24.4C228.1,342.1,240.3,353.5,240.3,370.3z M225.1,370.5
			c0-9.8-6.4-16.4-15.3-16.4h-9.3v32.6h10C219.1,386.7,225.1,380.2,225.1,370.5z"/>
		<path class="st1" d="M262.5,342.6c0,4.6-3.1,7.7-7.7,7.7c-4.4,0-7.7-3.1-7.7-7.7c0-4.6,3.1-7.7,7.7-7.7
			C259.3,334.9,262.5,338,262.5,342.6z M262,355v43.8h-14.2V355H262z"/>
	</g>
</g>
</svg>
